<svg width="298" height="200" viewBox="0 0 298 200" fill="none" xmlns="http://www.w3.org/2000/svg">
<g filter="url(#filter0_d_1_2284)">
<path d="M99.5899 49.5415C99.8511 48.7373 100.989 48.7373 101.25 49.5415L102.968 54.8273C103.084 55.1869 103.42 55.4304 103.798 55.4304H109.356C110.201 55.4304 110.553 56.5124 109.869 57.0094L105.372 60.2762C105.066 60.4985 104.938 60.8924 105.055 61.2521L106.773 66.5379C107.034 67.342 106.113 68.0107 105.429 67.5137L100.933 64.2469C100.627 64.0247 100.213 64.0247 99.9069 64.2469L95.4106 67.5137C94.7265 68.0107 93.8061 67.342 94.0674 66.5379L95.7849 61.2521C95.9017 60.8924 95.7737 60.4985 95.4678 60.2762L90.9714 57.0094C90.2873 56.5124 90.6389 55.4304 91.4845 55.4304H97.0423C97.4204 55.4304 97.7555 55.1869 97.8724 54.8273L99.5899 49.5415Z" fill="#F4A209"/>
<path d="M124.03 49.5415C124.291 48.7373 125.429 48.7373 125.69 49.5415L127.408 54.8273C127.524 55.1869 127.86 55.4304 128.238 55.4304H133.796C134.641 55.4304 134.993 56.5124 134.309 57.0094L129.812 60.2762C129.506 60.4985 129.378 60.8924 129.495 61.2521L131.213 66.5379C131.474 67.342 130.553 68.0107 129.869 67.5137L125.373 64.2469C125.067 64.0247 124.653 64.0247 124.347 64.2469L119.851 67.5137C119.167 68.0107 118.246 67.342 118.507 66.5379L120.225 61.2521C120.342 60.8924 120.214 60.4985 119.908 60.2762L115.411 57.0094C114.727 56.5124 115.079 55.4304 115.924 55.4304H121.482C121.86 55.4304 122.196 55.1869 122.312 54.8273L124.03 49.5415Z" fill="#F4A209"/>
<path d="M148.47 49.5415C148.731 48.7373 149.869 48.7373 150.13 49.5415L151.848 54.8273C151.964 55.1869 152.3 55.4304 152.678 55.4304H158.236C159.081 55.4304 159.433 56.5124 158.749 57.0094L154.252 60.2762C153.946 60.4985 153.818 60.8924 153.935 61.2521L155.653 66.5379C155.914 67.342 154.993 68.0107 154.309 67.5137L149.813 64.2469C149.507 64.0247 149.093 64.0247 148.787 64.2469L144.291 67.5137C143.607 68.0107 142.686 67.342 142.947 66.5379L144.665 61.2521C144.782 60.8924 144.654 60.4985 144.348 60.2762L139.851 57.0094C139.167 56.5124 139.519 55.4304 140.364 55.4304H145.922C146.3 55.4304 146.636 55.1869 146.752 54.8273L148.47 49.5415Z" fill="#F4A209"/>
<path d="M172.91 49.5415C173.171 48.7373 174.309 48.7373 174.57 49.5415L176.288 54.8273C176.404 55.1869 176.74 55.4304 177.118 55.4304H182.675C183.521 55.4304 183.873 56.5124 183.189 57.0094L178.692 60.2762C178.386 60.4985 178.258 60.8924 178.375 61.2521L180.093 66.5379C180.354 67.342 179.433 68.0107 178.749 67.5137L174.253 64.2469C173.947 64.0247 173.533 64.0247 173.227 64.2469L168.731 67.5137C168.046 68.0107 167.126 67.342 167.387 66.5379L169.105 61.2521C169.222 60.8924 169.094 60.4985 168.788 60.2762L164.291 57.0094C163.607 56.5124 163.959 55.4304 164.804 55.4304H170.362C170.74 55.4304 171.076 55.1869 171.192 54.8273L172.91 49.5415Z" fill="#F4A209"/>
<path d="M197.35 49.5415C197.611 48.7373 198.749 48.7373 199.01 49.5415L200.728 54.8273C200.844 55.1869 201.18 55.4304 201.558 55.4304H207.115C207.961 55.4304 208.313 56.5124 207.629 57.0094L203.132 60.2762C202.826 60.4985 202.698 60.8924 202.815 61.2521L204.533 66.5379C204.794 67.342 203.873 68.0107 203.189 67.5137L198.693 64.2469C198.387 64.0247 197.973 64.0247 197.667 64.2469L193.171 67.5137C192.486 68.0107 191.566 67.342 191.827 66.5379L193.545 61.2521C193.662 60.8924 193.534 60.4985 193.228 60.2762L188.731 57.0094C188.047 56.5124 188.399 55.4304 189.244 55.4304H194.802C195.18 55.4304 195.516 55.1869 195.632 54.8273L197.35 49.5415Z" fill="#F4A209"/>
</g>
<defs>
<filter id="filter0_d_1_2284" x="0.914307" y="0.725155" width="296.771" height="199.011" filterUnits="userSpaceOnUse" color-interpolation-filters="sRGB">
<feFlood flood-opacity="0" result="BackgroundImageFix"/>
<feColorMatrix in="SourceAlpha" type="matrix" values="0 0 0 0 0 0 0 0 0 0 0 0 0 0 0 0 0 0 127 0" result="hardAlpha"/>
<feOffset dy="41.0243"/>
<feGaussianBlur stdDeviation="43.6428"/>
<feComposite in2="hardAlpha" operator="out"/>
<feColorMatrix type="matrix" values="0 0 0 0 0.0833333 0 0 0 0 0.0833333 0 0 0 0 0.0833333 0 0 0 0.15 0"/>
<feBlend mode="normal" in2="BackgroundImageFix" result="effect1_dropShadow_1_2284"/>
<feBlend mode="normal" in="SourceGraphic" in2="effect1_dropShadow_1_2284" result="shape"/>
</filter>
</defs>
</svg>
