<svg width="33" height="33" viewBox="0 0 33 33" fill="none" xmlns="http://www.w3.org/2000/svg">
<g clip-path="url(#clip0_1_2720)">
<path d="M16.6992 10.6301C13.6643 10.6301 11.2164 13.0398 11.2164 16.0272C11.2164 19.0147 13.6643 21.4244 16.6992 21.4244C19.7341 21.4244 22.182 19.0147 22.182 16.0272C22.182 13.0398 19.7341 10.6301 16.6992 10.6301ZM16.6992 19.5361C14.738 19.5361 13.1346 17.9625 13.1346 16.0272C13.1346 14.092 14.7332 12.5184 16.6992 12.5184C18.6652 12.5184 20.2637 14.092 20.2637 16.0272C20.2637 17.9625 18.6604 19.5361 16.6992 19.5361ZM23.6851 10.4093C23.6851 11.1092 23.1125 11.6682 22.4063 11.6682C21.6953 11.6682 21.1274 11.1045 21.1274 10.4093C21.1274 9.7141 21.7001 9.15043 22.4063 9.15043C23.1125 9.15043 23.6851 9.7141 23.6851 10.4093ZM27.3165 11.687C27.2354 10.0006 26.8441 8.50691 25.5891 7.27622C24.3389 6.04554 22.8214 5.66036 21.1083 5.57581C19.3428 5.47717 14.0508 5.47717 12.2852 5.57581C10.5769 5.65567 9.0595 6.04084 7.80451 7.27152C6.54952 8.50221 6.163 9.99594 6.07711 11.6823C5.9769 13.4202 5.9769 18.6295 6.07711 20.3675C6.15823 22.0538 6.54952 23.5475 7.80451 24.7782C9.0595 26.0089 10.5722 26.3941 12.2852 26.4786C14.0508 26.5773 19.3428 26.5773 21.1083 26.4786C22.8214 26.3988 24.3389 26.0136 25.5891 24.7782C26.8393 23.5475 27.2306 22.0538 27.3165 20.3675C27.4167 18.6295 27.4167 13.4249 27.3165 11.687ZM25.0356 22.2323C24.6634 23.153 23.9428 23.8623 23.0028 24.2333C21.5951 24.7829 18.2548 24.6561 16.6992 24.6561C15.1436 24.6561 11.7985 24.7782 10.3956 24.2333C9.46033 23.867 8.73979 23.1577 8.36281 22.2323C7.80451 20.8466 7.93335 17.5585 7.93335 16.0272C7.93335 14.4959 7.80928 11.2031 8.36281 9.82214C8.73501 8.90148 9.45556 8.19219 10.3956 7.8211C11.8033 7.27152 15.1436 7.39835 16.6992 7.39835C18.2548 7.39835 21.5998 7.27622 23.0028 7.8211C23.938 8.18749 24.6586 8.89678 25.0356 9.82214C25.5939 11.2078 25.465 14.4959 25.465 16.0272C25.465 17.5585 25.5939 20.8513 25.0356 22.2323Z" fill="#53047E"/>
</g>
<defs>
<clipPath id="clip0_1_2720">
<rect width="21.3778" height="24.05" fill="white" transform="translate(6.00537 4.00769)"/>
</clipPath>
</defs>
</svg>
