<svg width="21" height="21" viewBox="0 0 21 21" fill="none" xmlns="http://www.w3.org/2000/svg">
<path d="M10.7121 0.222168C5.19098 0.222168 0.715698 4.6983 0.715698 10.2185C0.715698 15.7396 5.19098 20.2149 10.7121 20.2149C16.2323 20.2149 20.7084 15.7387 20.7084 10.2185C20.7084 4.6983 16.2323 0.222168 10.7121 0.222168ZM8.26314 12.9028C8.26314 13.4431 7.82535 13.88 7.28594 13.88C6.74569 13.88 6.30875 13.4431 6.30875 12.9028V8.73664C6.30875 8.19639 6.74569 7.7586 7.28594 7.7586C7.82535 7.7586 8.26314 8.19639 8.26314 8.73664V12.9028ZM15.1662 12.8326C15.1662 13.5964 14.7199 13.8699 13.9561 13.8699H10.4419C9.67812 13.8699 9.05912 13.2509 9.05912 12.4871V9.03048C9.05912 9.03048 8.99053 8.45551 9.62732 7.91526C9.9872 7.60956 10.5215 7.02613 10.895 6.31821C11.6368 4.91169 12.0805 4.50185 12.4183 4.61193C13.6699 5.01754 13.0441 6.87286 12.6402 7.64767H13.7834C14.5463 7.64767 15.1662 8.26667 15.1662 9.03048V12.8326Z" fill="#861657"/>
</svg>
