<svg width="33" height="33" viewBox="0 0 33 33" fill="none" xmlns="http://www.w3.org/2000/svg">
<g clip-path="url(#clip0_1_2724)">
<path d="M10.7506 25.3864V11.8643H6.16738V25.3864H10.7506ZM8.45961 10.017C10.0579 10.017 11.0527 8.97866 11.0527 7.68108C11.0229 6.35425 10.0579 5.34473 8.48994 5.34473C6.92219 5.34473 5.89697 6.35427 5.89697 7.68108C5.89697 8.97872 6.89157 10.017 8.42969 10.017H8.45947H8.45961ZM13.2875 25.3864H17.8707V17.835C17.8707 17.4309 17.9005 17.0272 18.0215 16.7383C18.3529 15.9308 19.107 15.0945 20.3731 15.0945C22.0316 15.0945 22.6951 16.3345 22.6951 18.1523V25.3863H27.2781V17.6329C27.2781 13.4794 25.0169 11.5469 22.0014 11.5469C19.5289 11.5469 18.4433 12.9021 17.8402 13.8252H17.8708V11.864H13.2876C13.3477 13.1329 13.2876 25.3861 13.2876 25.3861L13.2875 25.3864Z" fill="#53047E"/>
</g>
<defs>
<clipPath id="clip0_1_2724">
<rect width="21.3778" height="20.0417" fill="white" transform="translate(5.89697 5.3446)"/>
</clipPath>
</defs>
</svg>
