<svg width="25" height="26" viewBox="0 0 25 26" fill="none" xmlns="http://www.w3.org/2000/svg">
<path d="M11.5899 3.54147C11.8511 2.7373 12.9888 2.7373 13.2501 3.54147L14.9676 8.82725C15.0844 9.18689 15.4196 9.43038 15.7977 9.43038H21.3555C22.2011 9.43038 22.5526 10.5124 21.8686 11.0094L17.3722 14.2762C17.0663 14.4985 16.9383 14.8924 17.0551 15.2521L18.7726 20.5379C19.0339 21.342 18.1135 22.0107 17.4294 21.5137L12.933 18.2469C12.6271 18.0247 12.2129 18.0247 11.9069 18.2469L7.41058 21.5137C6.72651 22.0107 5.8061 21.342 6.0674 20.5379L7.78485 15.2521C7.9017 14.8924 7.77369 14.4985 7.46777 14.2762L2.97141 11.0094C2.28734 10.5124 2.63891 9.43038 3.48446 9.43038H9.04227C9.42041 9.43038 9.75555 9.18689 9.8724 8.82725L11.5899 3.54147Z" fill="#F4A209"/>
</svg>
