<svg width="33" height="33" viewBox="0 0 33 33" fill="none" xmlns="http://www.w3.org/2000/svg">
<g clip-path="url(#clip0_1_2728)">
<path d="M28.1662 8.95897C27.2656 9.33906 26.3104 9.58855 25.3323 9.69914C26.3511 9.11739 27.1334 8.19616 27.5017 7.09853C26.5332 7.64608 25.4736 8.03186 24.3686 8.23921C23.4685 7.32568 22.1862 6.75476 20.767 6.75476C18.042 6.75476 15.8327 8.85945 15.8327 11.4553C15.8327 11.8238 15.8764 12.1825 15.9605 12.5266C11.8597 12.3305 8.22406 10.4592 5.79041 7.61522C5.36578 8.30947 5.12246 9.11703 5.12246 9.97838C5.12246 11.6093 5.99361 13.048 7.31749 13.891C6.53394 13.8676 5.76763 13.666 5.08253 13.303C5.08225 13.3226 5.08225 13.3423 5.08225 13.3621C5.08225 15.6396 6.78304 17.5395 9.04017 17.9714C8.31358 18.1596 7.55144 18.1872 6.81197 18.0519C7.43981 19.9194 9.26207 21.2784 11.4211 21.3164C9.73245 22.5771 7.60487 23.3287 5.29325 23.3287C4.89492 23.3287 4.50223 23.3064 4.11621 23.263C6.29978 24.5967 8.89333 25.3749 11.6797 25.3749C20.7555 25.3749 25.7184 18.2121 25.7184 12.0005C25.7184 11.7966 25.7137 11.5939 25.7041 11.3923C26.6701 10.727 27.5038 9.90303 28.1662 8.95897Z" fill="#53047E"/>
</g>
<defs>
<clipPath id="clip0_1_2728">
<rect width="24.05" height="18.7056" fill="white" transform="translate(4.11621 6.68054)"/>
</clipPath>
</defs>
</svg>
